<svg version="1.1" xmlns="http://www.w3.org/2000/svg" xmlns:xlink="http://www.w3.org/1999/xlink" width="144.083px" height="144px" viewBox="0,0,256,255.84375"><g fill="#FFFFFF" fill-rule="nonzero" stroke="none" stroke-width="1" stroke-linecap="butt" stroke-linejoin="miter" stroke-miterlimit="10" stroke-dasharray="" stroke-dashoffset="0" font-family="none" font-weight="none" font-size="none" text-anchor="none" style="mix-blend-mode: normal"><g transform="translate(0.00089,-0.00439) scale(1.77675,1.77675)"><path d="M72.04,14.166c-31.94,0 -57.833,25.894 -57.833,57.834c0,31.939 25.893,57.834 57.833,57.834c31.941,0 57.835,-25.895 57.835,-57.834c0,-31.94 -25.894,-57.834 -57.835,-57.834zM104.424,85.031c0,4.446 -3.604,8.05 -8.049,8.05c0,0 -6.875,1 -24.73,1c-17.958,0 -24.271,-1 -24.271,-1c-4.446,0 -8.051,-3.604 -8.051,-8.05v-26.563c0,-4.445 3.604,-8.05 8.051,-8.05c0,0 6.313,-1 24.251,-1c17.875,0 24.75,1 24.75,1c4.445,0 8.049,3.604 8.049,8.05z"></path><path d="M62.019,84.496l21.954,-12.675l-21.954,-12.675z"></path></g></g></svg>